<svg xmlns="http://www.w3.org/2000/svg" width="14" height="10" viewBox="0 0 14 10">
  <path id="Path_television-guide" data-name="Path / television-guide" d="M13.727,10.778V4.111H2.273v6.667H13.727m0-7.778A1.2,1.2,0,0,1,15,4.111v6.667a1.2,1.2,0,0,1-1.273,1.111H10.545V13H5.455V11.889H2.273A1.2,1.2,0,0,1,1,10.778V4.111A1.2,1.2,0,0,1,2.273,3H13.727M3.545,5.222H7.364V7.444H3.545V5.222m0,3.333H7.364V9.667H3.545V8.556M8.636,5.222h3.818V6.333H8.636V5.222m0,2.222h3.818V9.667H8.636Z" transform="translate(-1 -3)"/>
</svg>
