<svg xmlns="http://www.w3.org/2000/svg" width="12.005" height="12.003" viewBox="0 0 12.005 12.003">
  <g id="MDI_help-rhombus" data-name="MDI / help-rhombus" transform="translate(-2 -2)">
    <path id="Path_help-rhombus" data-name="Path / help-rhombus" d="M8,2a1.2,1.2,0,0,0-.846.354l-4.8,4.8a1.184,1.184,0,0,0,0,1.692l4.8,4.8a1.185,1.185,0,0,0,1.692,0l4.8-4.8a1.184,1.184,0,0,0,0-1.692l-4.8-4.8A1.2,1.2,0,0,0,8,2M8,4.97A1.755,1.755,0,0,1,9.368,7.886c-.252.3-.654.5-.858.756A1.256,1.256,0,0,0,8.3,9.5H7.4a2.187,2.187,0,0,1,.21-1.236,3.5,3.5,0,0,1,.852-.678C9.2,6.908,9.008,5.954,8,5.876a.9.9,0,0,0-.9.906H6.2A1.808,1.808,0,0,1,8,4.97M7.4,10.1h.9V11H7.4Z" transform="translate(0.003)"/>
  </g>
</svg>
