<svg xmlns="http://www.w3.org/2000/svg" width="16" height="13.087" viewBox="0 0 16 13.087">
  <path id="Icon_awesome-chromecast" data-name="Icon awesome-chromecast" d="M16.033,4.5H2.952A1.456,1.456,0,0,0,1.5,5.956V8.134H2.952V5.956H16.033V16.131H10.949v1.456h5.09A1.456,1.456,0,0,0,17.5,16.131V5.956A1.456,1.456,0,0,0,16.039,4.5ZM1.5,15.392V17.57H3.674A2.178,2.178,0,0,0,1.5,15.392Zm0-2.906v1.455A3.634,3.634,0,0,1,5.13,17.576v.011H6.586A5.085,5.085,0,0,0,1.508,12.5H1.5Zm0-2.906v1.456A6.54,6.54,0,0,1,8.042,17.57v.017H9.5a8.025,8.025,0,0,0-8-8Z" transform="translate(-1.496 -4.5)" fill="#fff"/>
</svg>
