<svg id="MDI_import" data-name="MDI / import" xmlns="http://www.w3.org/2000/svg" width="16" height="16" viewBox="0 0 16 16">
  <g id="Boundary" stroke="rgba(0,0,0,0)" stroke-width="1" opacity="0">
    <rect width="16" height="16" stroke="none"/>
    <rect x="0.5" y="0.5" width="15" height="15" fill="none"/>
  </g>
  <path id="Path_import" data-name="Path / import" d="M10,9.333,7.333,6.667v2H2V10H7.333v2M14,13.333v-8A1.333,1.333,0,0,0,12.667,4h-8A1.333,1.333,0,0,0,3.333,5.333v2H4.667v-2h8v8h-8v-2H3.333v2a1.333,1.333,0,0,0,1.333,1.333h8A1.333,1.333,0,0,0,14,13.333Z" transform="translate(0 -1.333)"/>
</svg>
